<?xml version="1.0" encoding="UTF-8"?>
<svg id="uuid-de4ef120-9fa9-47d6-a7f3-303cc08be882" data-name="Layer 1" xmlns="http://www.w3.org/2000/svg" width="479.95" height="479.7" viewBox="0 0 479.95 479.7">
  <path d="m215.29,214.09c45.81,45.78,35.54,130.18,35.54,130.18,0,0-84.53,10.25-130.33-35.5s-35.54-130.18-35.54-130.18c0,0,84.52-10.25,130.33,35.5h0Z" style="fill: #92e016;"/>
  <path d="m357.87,306.9c-52.35,52.29-154.02,35.5-154.02,35.5,0,0-16.8-101.56,35.54-153.85s154.02-35.5,154.02-35.5c0,0,16.8,101.56-35.54,153.85Z" style="fill: #5eb71b;"/>
  <path d="m419.89,47.66l-43.9,46.57,56.88,9.64-12.98-56.21Z" style="fill: #fff;"/>
  <path d="m60.08,432.07l43.9-46.57-56.88-9.64,12.98,56.21Z" style="fill: #fff;"/>
  <path d="m440.27,139.45c55.47,110.55,10.83,245.14-99.73,300.62-81.21,40.75-179,28.4-247.52-31.27l16.8-17.79c3.03-3.21,2.88-8.28-.33-11.31-1.15-1.08-2.6-1.8-4.15-2.07l-56.89-9.65c-4.36-.74-8.49,2.19-9.23,6.55-.18,1.04-.15,2.11.09,3.14l12.97,56.21c.66,2.88,2.85,5.16,5.7,5.93.68.18,1.39.27,2.1.27,2.2,0,4.31-.91,5.82-2.51l16.15-17.12c99.82,87.21,251.44,76.98,338.64-22.84,64.1-73.37,77.48-178.2,33.88-265.32l-14.3,7.17ZM64.51,415.71l-6.93-29.95,30.3,5.14-23.38,24.82Z"/>
  <path d="m39.69,340.28C-15.78,229.73,28.87,95.14,139.42,39.66,220.63-1.09,318.42,11.27,386.94,70.94l-16.8,17.79c-3.03,3.21-2.88,8.28.33,11.31,1.15,1.08,2.6,1.8,4.15,2.07l56.87,9.65c.44.08.89.11,1.34.11,4.42,0,8-3.58,8.01-7.99,0-.61-.07-1.21-.21-1.81l-12.95-56.21c-1-4.3-5.3-6.98-9.61-5.98-1.53.36-2.92,1.15-3.99,2.29l-16.15,17.12C298.13-27.93,146.51-17.73,59.29,82.07-4.84,155.45-18.23,260.31,25.4,347.45l14.3-7.17ZM415.45,64.02l6.91,29.95-30.3-5.14,23.39-24.82Z"/>
  <path d="m394.72,145.16c-4.33-.71-106.32-16.84-160.91,37.77-6.47,6.51-12.13,13.78-16.86,21.66-48.66-43.66-129.44-34.5-132.95-34.06-3.66.44-6.54,3.33-6.98,6.98-.43,3.6-10.14,88.8,37.81,136.93,33.06,32.9,83.49,38.82,115.28,38.82,2.5,0,4.8-.06,7.06-.11,1.55,0,3.06.06,4.68.06,35.72,0,87.83-6.66,121.7-40.53,54.61-54.61,38.48-156.61,37.76-160.93-.56-3.38-3.21-6.02-6.58-6.58h0Zm-201.36,153.01c-.28,12.09.21,24.18,1.46,36.21-25.56-3.12-49.54-14.04-68.68-31.26-35.33-35.46-34.92-97.19-33.74-117.22,19.94-1.17,81.38-1.6,116.88,33.43-7.85,18.3-12.77,37.72-14.59,57.55l-44.8-44.8-11.31,11.31,54.79,54.78Zm158.87,3.2c-36.59,36.58-100.51,37.1-130.54,35.01l106.29-106.33-11.28-11.31-106.56,106.56c-2.16-29.79-1.86-94.23,34.98-131.03,41.82-41.83,119.36-36.51,141.17-34.05,2.5,21.77,7.86,99.23-34.06,141.14h0Z"/>
</svg>